HIERARCHY
ROOT joint_Root
{
	OFFSET 0.0 0.0 0.0
	CHANNELS 6 Xposition Yposition Zposition Zrotation Xrotation Yrotation 
	JOINT Hips
	{
		OFFSET -0.726466 93.3139 -2.00062
		CHANNELS 6 Xposition Yposition Zposition Zrotation Xrotation Yrotation 
		JOINT Spine
		{
			OFFSET 15.7357 0.0 0.0
			CHANNELS 6 Xposition Yposition Zposition Zrotation Xrotation Yrotation 
			JOINT Chest
			{
				OFFSET 8.98455 -0.406207 0.0
				CHANNELS 6 Xposition Yposition Zposition Zrotation Xrotation Yrotation 
				JOINT Neck
				{
					OFFSET 16.3773 0.0 0.0
					CHANNELS 6 Xposition Yposition Zposition Zrotation Xrotation Yrotation 
					JOINT Head
					{
						OFFSET 6.45672 0.0 0.0
						CHANNELS 6 Xposition Yposition Zposition Zrotation Xrotation Yrotation 
						End Site
						{
							OFFSET 0.0 0.0 0.0
						}
					}
				}
				JOINT Shoulder_L
				{
					OFFSET 12.9942 -0.242716 4.98039
					CHANNELS 6 Xposition Yposition Zposition Zrotation Xrotation Yrotation 
					JOINT UpperArm_L
					{
						OFFSET 5.34809 0.0 0.0
						CHANNELS 6 Xposition Yposition Zposition Zrotation Xrotation Yrotation 
						JOINT LowerArm_L
						{
							OFFSET 24.3286 1.87007e-05 0.0
							CHANNELS 6 Xposition Yposition Zposition Zrotation Xrotation Yrotation 
							JOINT Hand_L
							{
								OFFSET 22.2916 0.0 0.0
								CHANNELS 6 Xposition Yposition Zposition Zrotation Xrotation Yrotation 
								End Site
								{
									OFFSET 0.0 0.0 0.0
								}
							}
						}
					}
				}
				JOINT Shoulder_R
				{
					OFFSET 12.9945 -0.242716 -4.98039
					CHANNELS 6 Xposition Yposition Zposition Zrotation Xrotation Yrotation 
					JOINT UpperArm_R
					{
						OFFSET -5.34813 0.0 0.0
						CHANNELS 6 Xposition Yposition Zposition Zrotation Xrotation Yrotation 
						JOINT LowerArm_R
						{
							OFFSET -24.3289 0.000322201 0.0
							CHANNELS 6 Xposition Yposition Zposition Zrotation Xrotation Yrotation 
							JOINT Hand_R
							{
								OFFSET -22.2915 -0.000108084 0.0
								CHANNELS 6 Xposition Yposition Zposition Zrotation Xrotation Yrotation 
								End Site
								{
									OFFSET 0.0 0.0 0.0
								}
							}
						}
					}
				}
			}
		}
		JOINT UpperLeg_L
		{
			OFFSET -2.19248 -6.46944 0.0
			CHANNELS 6 Xposition Yposition Zposition Zrotation Xrotation Yrotation 
			JOINT LowerLeg_L
			{
				OFFSET 39.0811 0.0 -1.23785e-05
				CHANNELS 6 Xposition Yposition Zposition Zrotation Xrotation Yrotation 
				JOINT Foot_L
				{
					OFFSET 40.9854 0.0 -1.26872e-05
					CHANNELS 6 Xposition Yposition Zposition Zrotation Xrotation Yrotation 
					JOINT Toes_L
					{
						OFFSET 11.7543 0.0 0.0
						CHANNELS 6 Xposition Yposition Zposition Zrotation Xrotation Yrotation 
						End Site
						{
							OFFSET 0.0 0.0 0.0
						}
					}
				}
			}
		}
		JOINT UpperLeg_R
		{
			OFFSET -2.19251 6.46944 0.0
			CHANNELS 6 Xposition Yposition Zposition Zrotation Xrotation Yrotation 
			JOINT LowerLeg_R
			{
				OFFSET -39.0811 -0.00228153 -0.0401928
				CHANNELS 6 Xposition Yposition Zposition Zrotation Xrotation Yrotation 
				JOINT Foot_R
				{
					OFFSET -40.9854 0.0 0.0
					CHANNELS 6 Xposition Yposition Zposition Zrotation Xrotation Yrotation 
					JOINT Toes_R
					{
						OFFSET -11.7543 0.0 0.0
						CHANNELS 6 Xposition Yposition Zposition Zrotation Xrotation Yrotation 
						End Site
						{
							OFFSET 0.0 0.0 0.0
						}
					}
				}
			}
		}
	}
}
MOTION
Frames:	8
Frame Time:	0.0333333
0.000000 0.000000 0.000000 0.000000 0.000000 -0.000000 -1.798950 93.368900 -48.453300 87.698200 4.965350 -7.437270 15.735700 0.000005 -0.000001 43.020700 82.181600 -41.009200 8.984550 -0.406207 -0.000000 3.164080 -11.501500 4.348010 16.377300 -0.000001 -0.000001 -0.175795 -1.877560 -0.047736 6.456720 -0.000001 -0.000000 -1.933590 5.520990 2.825990 12.994200 -0.242716 4.980390 -86.920100 -10.276600 -73.216300 5.348090 -0.000007 -0.000001 -74.640000 40.034300 -20.623100 24.328600 0.000019 0.000005 0.324543 -0.167259 -117.288000 22.291600 -0.000001 0.000005 4.216750 5.578380 -10.118400 12.994500 -0.242716 -4.980390 91.799200 -3.523840 -62.929700 -5.348130 -0.000001 -0.000004 -78.475000 39.839700 20.833000 -24.328900 0.000322 -0.000009 -3.491630 0.954461 -105.265000 -22.291500 -0.000108 -0.000004 7.376810 5.464900 -5.177910 -2.192480 -6.469440 -0.000000 -176.039000 -1.944840 10.106800 39.081100 -0.000007 -0.000012 0.004721 -0.006594 35.594100 40.985400 -0.000006 -0.000013 1.158120 -3.581670 -41.083700 11.754300 -0.000000 0.000003 -0.007551 -0.084334 -20.010500 -2.192510 6.469440 -0.000001 -172.871000 8.255060 148.564000 -39.081100 -0.002282 -0.040193 -0.046985 0.135810 20.325400 -40.985400 0.000008 0.000006 -5.460100 5.827570 -63.706300 -11.754300 -0.000006 -0.000006 -0.025528 -0.196182 -24.600400
0.000000 0.000000 0.000000 0.000000 0.000000 -0.000000 -1.627830 91.926000 -37.400600 89.782600 4.002520 -5.599440 15.735700 0.000005 -0.000001 47.367700 82.322000 -46.203600 8.984550 -0.406207 -0.000000 3.690680 -10.428800 2.667500 16.377300 -0.000001 -0.000001 -0.270299 -2.286200 -0.059619 6.456720 -0.000001 -0.000000 -2.454880 4.987510 3.740420 12.994200 -0.242716 4.980390 -87.124700 -9.696270 -73.394700 5.348090 -0.000007 -0.000001 -73.109500 40.405700 -19.865900 24.328600 0.000019 0.000005 -0.973673 0.510973 -117.691000 22.291600 -0.000001 0.000005 5.157530 5.609490 -11.921400 12.994500 -0.242716 -4.980390 91.491700 -2.887630 -62.665100 -5.348130 -0.000001 -0.000004 -77.368900 38.332000 20.092900 -24.328900 0.000322 -0.000009 -5.332360 1.660520 -107.242000 -22.291500 -0.000108 -0.000004 7.429920 5.453710 -4.772610 -2.192480 -6.469440 -0.000000 -179.007000 -0.750910 11.376200 39.081100 -0.000007 -0.000012 -0.023820 0.022160 47.071500 40.985400 -0.000006 -0.000013 2.683060 -10.684200 -42.303700 11.754300 -0.000000 0.000003 -0.007337 -0.082542 -19.937300 -2.192510 6.469440 -0.000001 -173.088000 12.361300 150.836000 -39.081100 -0.002282 -0.040193 -0.064818 0.225352 16.825100 -40.985400 0.000008 0.000006 -7.887830 8.420400 -67.209700 -11.754300 -0.000006 -0.000006 -0.027737 -0.206899 -25.044000
0.000000 0.000000 0.000000 0.000000 0.000000 -0.000000 -1.879150 89.808000 -26.834600 87.691900 2.254370 -4.072310 15.735700 0.000005 -0.000001 56.793000 82.543700 -54.947000 8.984550 -0.406207 -0.000000 4.886510 -8.198060 4.043180 16.377300 -0.000001 -0.000001 -0.229284 -2.177190 -0.359275 6.456720 -0.000001 -0.000000 -4.049770 4.520120 3.507330 12.994200 -0.242716 4.980390 -87.806300 -7.225140 -73.059500 5.348090 -0.000007 -0.000001 -71.925300 38.568700 -16.798500 24.328600 0.000019 0.000005 -2.323190 1.111410 -115.557000 22.291600 -0.000001 0.000005 5.110480 5.631860 -13.481500 12.994500 -0.242716 -4.980390 90.319500 -0.633426 -63.251000 -5.348130 -0.000001 -0.000004 -72.376300 38.844200 14.749400 -24.328900 0.000322 -0.000009 -7.915280 2.578470 -107.930000 -22.291500 -0.000108 -0.000004 9.396080 5.473880 -5.507570 -2.192480 -6.469440 -0.000000 -176.335000 -2.914410 8.371880 39.081100 -0.000007 -0.000012 -0.062742 0.031153 63.598100 40.985400 -0.000006 -0.000013 5.424070 -11.345700 -42.354900 11.754300 -0.000000 0.000003 -0.006408 -0.074503 -19.609300 -2.192510 6.469440 -0.000001 -169.218000 10.539900 148.912000 -39.081100 -0.002282 -0.040193 0.082306 -0.153437 27.242100 -40.985400 0.000008 0.000006 6.117640 3.818210 -63.542000 -11.754300 -0.000006 -0.000006 -0.040898 -0.263670 -27.406700
0.000000 0.000000 0.000000 0.000000 0.000000 -0.000000 -2.259600 86.758200 -16.491600 85.689600 0.868326 -2.824750 15.735700 0.000005 -0.000001 65.387000 82.608000 -62.758300 8.984550 -0.406207 -0.000000 5.849000 -6.185850 5.571770 16.377300 -0.000001 -0.000001 -0.756964 -1.796020 -0.473914 6.456720 -0.000001 -0.000000 -4.567340 4.258450 1.982350 12.994200 -0.242716 4.980390 -88.537100 -4.655080 -72.530000 5.348090 -0.000007 -0.000001 -73.180300 34.384900 -9.793320 24.328600 0.000019 0.000005 -2.832440 1.013570 -109.676000 22.291600 -0.000001 0.000005 4.337870 5.638830 -14.029300 12.994500 -0.242716 -4.980390 89.019100 2.041380 -64.314300 -5.348130 -0.000001 -0.000004 -64.757200 40.643800 5.591180 -24.328900 0.000322 -0.000009 -9.049940 2.700790 -106.483000 -22.291500 -0.000108 -0.000004 11.653000 5.509180 -6.889530 -2.192480 -6.469440 -0.000000 -173.235000 -4.822940 1.997190 39.081100 -0.000007 -0.000012 -0.108286 0.014861 82.189500 40.985400 -0.000006 -0.000013 5.214710 -11.797900 -42.705800 11.754300 -0.000000 0.000003 -0.006150 -0.072204 -19.515500 -2.192510 6.469440 -0.000001 -168.241000 5.628540 147.541000 -39.081100 -0.002282 -0.040193 -0.060673 0.066931 43.691300 -40.985400 0.000008 0.000006 9.713330 -1.041860 -65.134700 -11.754300 -0.000006 -0.000006 -0.013566 -0.128589 -21.817400
0.000000 0.000000 0.000000 0.000000 0.000000 -0.000000 -2.382930 84.538700 -6.760750 84.630800 -1.186970 0.237044 15.735700 0.000005 -0.000001 76.014500 81.561600 -73.025800 8.984550 -0.406207 -0.000000 8.739330 -4.033140 6.282420 16.377300 -0.000001 -0.000001 -2.454640 -1.032660 -0.749500 6.456720 -0.000001 -0.000000 -4.500500 3.545010 1.253590 12.994200 -0.242716 4.980390 -89.186800 -2.463170 -71.721600 5.348090 -0.000007 -0.000001 -74.386600 28.851200 -2.716260 24.328600 0.000019 0.000005 -1.086070 0.156428 -97.658900 22.291600 -0.000001 0.000005 4.052920 5.636620 -13.854800 12.994500 -0.242716 -4.980390 87.238300 6.196980 -65.918700 -5.348130 -0.000001 -0.000004 -51.991300 43.522000 -10.001500 -24.328900 0.000322 -0.000009 -10.954100 2.311610 -101.770000 -22.291500 -0.000108 -0.000004 14.644500 5.545640 -8.501000 -2.192480 -6.469440 -0.000000 -172.544000 -6.026040 -5.191090 39.081100 -0.000007 -0.000012 -0.256557 -0.035946 97.978100 40.985400 -0.000006 -0.000013 8.197760 -10.463000 -43.053400 11.754300 -0.000000 0.000003 -0.007297 -0.082200 -19.923400 -2.192510 6.469440 -0.000001 -167.205000 2.194310 153.020000 -39.081100 -0.002282 -0.040193 0.213289 -0.154337 53.693800 -40.985400 0.000008 0.000006 12.588200 -6.114640 -74.928400 -11.754300 -0.000006 -0.000006 -0.005680 -0.067899 -19.336300
0.000000 0.000000 0.000000 0.000000 0.000000 -0.000000 -2.257610 83.850600 2.181800 86.207700 -1.099740 -0.678937 15.735700 0.000005 -0.000001 81.494800 82.013400 -78.759400 8.984550 -0.406207 -0.000000 8.098650 -2.344090 5.631970 16.377300 -0.000001 -0.000001 -1.893390 -1.727300 -0.682790 6.456720 -0.000001 -0.000000 -4.792100 2.214040 -0.579083 12.994200 -0.242716 4.980390 -89.240100 -2.276690 -71.535800 5.348090 -0.000007 -0.000001 -74.183800 27.559600 2.589750 24.328600 0.000019 0.000005 10.502400 0.052692 -89.712400 22.291600 -0.000001 0.000005 1.691630 5.637710 -13.932700 12.994500 -0.242716 -4.980390 87.215300 6.430690 -66.526900 -5.348130 -0.000001 -0.000004 -44.211300 44.560200 -24.665000 -24.328900 0.000322 -0.000009 -6.532700 1.122760 -99.722200 -22.291500 -0.000108 -0.000004 14.296700 5.549510 -8.701550 -2.192480 -6.469440 -0.000000 -176.207000 -4.551740 -18.764100 39.081100 -0.000007 -0.000012 -0.519209 -0.166412 107.772000 40.985400 -0.000006 -0.000013 11.513200 -8.260580 -44.214400 11.754300 -0.000000 0.000003 -0.006929 -0.079058 -19.795100 -2.192510 6.469440 -0.000001 -169.685000 6.608690 158.395000 -39.081100 -0.002282 -0.040193 0.212697 -0.145423 55.230200 -40.985400 0.000008 0.000006 13.536300 -3.699450 -82.504400 -11.754300 -0.000006 -0.000006 -0.136137 -0.208486 -19.155100
0.000000 0.000000 0.000000 0.000000 0.000000 -0.000000 -1.857790 84.780700 11.577900 88.764500 -1.723050 -2.596870 15.735700 0.000005 -0.000001 92.426100 82.877700 -90.517800 8.984550 -0.406207 -0.000000 6.459210 0.579462 3.779600 16.377300 -0.000001 -0.000001 -1.565220 -2.505280 0.080217 6.456720 -0.000001 -0.000000 -3.697810 -0.587224 -1.472630 12.994200 -0.242716 4.980390 -89.003300 -2.823920 -70.554300 5.348090 -0.000007 -0.000001 -71.598800 32.533300 6.729670 24.328600 0.000019 0.000005 6.677970 -0.447245 -93.867100 22.291600 -0.000001 0.000005 -0.770997 5.636240 -13.811200 12.994500 -0.242716 -4.980390 88.191200 4.306170 -67.190600 -5.348130 -0.000001 -0.000004 -44.461300 43.802600 -31.079900 -24.328900 0.000322 -0.000009 -3.540750 0.936194 -104.773000 -22.291500 -0.000108 -0.000004 11.692500 5.566420 -9.505430 -2.192480 -6.469440 -0.000000 179.347000 -3.152050 -30.385000 39.081100 -0.000007 -0.000012 -0.539916 -0.177297 108.180000 40.985400 -0.000006 -0.000013 11.786600 -8.133790 -49.338500 11.754300 -0.000000 0.000003 -0.006424 -0.074652 -19.615400 -2.192510 6.469440 -0.000001 -173.916000 7.821100 166.234000 -39.081100 -0.002282 -0.040193 0.186118 -0.155115 49.694600 -40.985400 0.000008 0.000006 13.336300 -1.631930 -83.932800 -11.754300 -0.000006 -0.000006 -1.341580 -1.514760 -21.668500
0.000000 0.000000 0.000000 0.000000 0.000000 -0.000000 -1.272560 87.301800 21.864300 91.350700 -3.796570 -3.097110 15.735700 0.000005 -0.000001 105.393000 82.963100 -104.738000 8.984550 -0.406207 -0.000000 5.791530 3.714930 1.121170 16.377300 -0.000001 -0.000001 -0.744467 -2.539890 0.434710 6.456720 -0.000001 -0.000000 -2.923030 -3.469980 0.277606 12.994200 -0.242716 4.980390 -88.347800 -4.229620 -68.643500 5.348090 -0.000007 -0.000001 -70.191000 37.649300 10.160200 24.328600 0.000019 0.000005 -2.840950 0.458295 -99.128700 22.291600 -0.000001 0.000005 0.774164 5.633460 -13.599900 12.994500 -0.242716 -4.980390 88.719000 3.200190 -68.171600 -5.348130 -0.000001 -0.000004 -45.076300 44.302400 -34.683000 -24.328900 0.000322 -0.000009 -6.469850 2.304780 -109.516000 -22.291500 -0.000108 -0.000004 12.418200 5.561050 -9.238600 -2.192480 -6.469440 -0.000000 175.300000 -2.282560 -35.459900 39.081100 -0.000007 -0.000012 -0.357086 -0.056484 98.990100 40.985400 -0.000006 -0.000013 10.660500 -9.368100 -54.777300 11.754300 -0.000000 0.000003 -0.006082 -0.071583 -19.490200 -2.192510 6.469440 -0.000001 -179.063000 7.504020 176.230000 -39.081100 -0.002282 -0.040193 0.126964 -0.143160 40.826600 -40.985400 0.000008 0.000006 13.061500 2.762130 -75.076700 -11.754300 -0.000006 -0.000006 -0.060604 -0.333735 -30.357700
